<svg xmlns="http://www.w3.org/2000/svg" viewBox="0 0 155.71 156.29"><g id="Capa_2" data-name="Capa 2"><g id="Capa_1-2" data-name="Capa 1"><path d="M155.68,78.19c0,10.17.07,20.33,0,30.5-.08,9.74-4.23,16.76-13.52,20.67-10,4.19-19.74,8.74-29.72,12.89-7.57,3.14-14.64,7.55-22.11,11.09a28.85,28.85,0,0,1-24,.62c-18.51-7.7-36.07-17.52-54.49-25.49C3.81,125,.06,118.38,0,109.78q-.11-31.48,0-63c0-9.71,4.61-16.12,13.56-20.09C31.09,19,48.4,10.78,65.76,2.74,73.64-.91,81.45-.82,89.43,2.47,101.52,7.45,112.87,14,125,19c6.45,2.66,12.74,6,19.19,8.91,8.36,3.73,11.42,10.68,11.47,19.33.07,10.33,0,20.66,0,31ZM69.85,106.68h0c0,6.83,0,13.65,0,20.48s2.44,10,7.63,10.06c5.59.11,8.25-3,8.27-10,0-14,0-28,0-42,0-6,3-10.12,8.21-12.58,9.18-4.28,18.45-8.37,27.67-12.58,4.54-2.07,9.16-4,13.54-6.38s5.81-6.89,3.73-11c-1.79-3.55-6.36-5.08-10.67-3.15-13.92,6.24-27.84,12.5-41.63,19a18.71,18.71,0,0,1-16.72.27Q49.75,49.68,29.53,40.55c-2.52-1.14-5-2.87-8-1.73C18.1,40.1,16,42.31,15.79,46.16c-.26,4.68,2.73,6.87,6.35,8.56,13.22,6.14,26.47,12.22,39.7,18.34,5.37,2.48,8.08,6.65,8,12.64C69.8,92.69,69.85,99.69,69.85,106.68Z" fill="#5f2aff"/></g></g></svg>