<svg xmlns="http://www.w3.org/2000/svg" viewBox="0 0 156.71 157.29"><defs><style>.cls-1{fill:none;stroke:#000;stroke-miterlimit:10;}</style></defs><g id="Capa_2" data-name="Capa 2"><g id="Capa_1-2" data-name="Capa 1"><path class="cls-1" d="M156.18,78.69c0,10.17.07,20.33,0,30.5-.08,9.74-4.23,16.76-13.52,20.67-10,4.19-19.74,8.74-29.72,12.89-7.57,3.14-14.64,7.55-22.11,11.09a28.85,28.85,0,0,1-24,.62c-18.51-7.7-36.07-17.52-54.49-25.49C4.31,125.52.56,118.88.54,110.28q-.11-31.48,0-63c0-9.71,4.61-16.12,13.56-20.09,17.49-7.76,34.8-15.93,52.16-24C74.14-.41,82-.32,89.93,3,102,8,113.37,14.46,125.48,19.46c6.45,2.66,12.74,6,19.19,8.91C153,32.1,156.09,39.05,156.14,47.7c.07,10.33,0,20.66,0,31ZM70.35,107.18h0c0,6.83,0,13.65,0,20.48s2.44,10,7.63,10.06c5.59.11,8.25-3,8.27-10,0-14,0-28,0-42,0-6,3-10.12,8.21-12.58C103.68,69,113,64.86,122.17,60.65c4.54-2.07,9.16-4,13.54-6.38s5.81-6.89,3.73-11c-1.79-3.55-6.36-5.08-10.67-3.15-13.92,6.24-27.84,12.5-41.63,19a18.71,18.71,0,0,1-16.72.27Q50.25,50.18,30,41.05c-2.52-1.14-5-2.87-8-1.73-3.43,1.28-5.53,3.49-5.74,7.34C16,51.34,19,53.53,22.64,55.22c13.22,6.14,26.47,12.22,39.7,18.34,5.37,2.48,8.08,6.65,8,12.64C70.3,93.19,70.35,100.19,70.35,107.18Z"/></g></g></svg>