<svg xmlns="http://www.w3.org/2000/svg" viewBox="0 0 337.11 55.63"><defs><style>.cls-1{fill:none;stroke:#000;stroke-miterlimit:10;}</style></defs><g id="Capa_2" data-name="Capa 2"><g id="Capa_1-2" data-name="Capa 1"><line class="cls-1" x1="144.58" y1="44.75" x2="158.65" y2="21.85"/><polygon class="cls-1" points="0.61 51.36 14.65 51.36 14.65 15.36 0.5 1.21 0.61 51.36"/><polygon class="cls-1" points="30.08 5.54 41.55 5.54 41.55 54.43 18.61 31.49 18.61 13.36 29.95 24.7 30.08 5.54"/><rect class="cls-1" x="46.87" y="40.75" width="32.35" height="10.61"/><rect class="cls-1" x="46.61" y="22.49" width="32.35" height="10.61"/><rect class="cls-1" x="46.61" y="5.49" width="32.35" height="10.61"/><polygon class="cls-1" points="84.44 5.54 114.18 5.54 114.18 51.36 102.44 51.36 102.44 16.1 84.44 16.1 84.44 5.54"/><polygon class="cls-1" points="162.18 16.1 158.65 21.85 173.11 50.86 196.48 5.54 189.53 5.54 173.11 37.86 162.18 16.1"/><polygon class="cls-1" points="144.58 44.76 140.52 51.36 117.83 5.49 124.61 5.49 144.58 44.76"/><path class="cls-1" d="M224.11,5.36a22.5,22.5,0,1,0,22.5,22.5A22.51,22.51,0,0,0,224.11,5.36Zm0,39a16.5,16.5,0,1,1,16.5-16.5A16.5,16.5,0,0,1,224.11,44.36Z"/><rect class="cls-1" x="255.61" y="20.36" width="6" height="31"/><path class="cls-1" d="M280,34.07a15,15,0,0,0-4.84-29.21h-19.5v7h19.5a9,9,0,0,1,9,9c0,5-4,8-9,8-2.51,0-4.78,0-6.42-1.69l13.1,24.19h8.32Z"/><path class="cls-1" d="M313.61,51.36a23,23,0,0,0,0-46h-14v6h14a17,17,0,0,1,0,34h-14v6Z"/></g></g></svg>