<svg xmlns="http://www.w3.org/2000/svg" viewBox="0 0 336.11 53.22" fill="#f5014c"><g id="Capa_2" data-name="Capa 2"><g id="Capa_1-2" data-name="Capa 1"><line x1="144.08" y1="43.55" x2="158.15" y2="20.64"/><polygon points="0.11 50.15 14.15 50.15 14.15 14.15 0 0 0.11 50.15"/><polygon points="29.58 4.33 41.04 4.33 41.04 53.22 18.11 30.28 18.11 12.15 29.45 23.5 29.58 4.33"/><rect x="46.37" y="39.54" width="32.35" height="10.61"/><rect x="46.11" y="21.28" width="32.35" height="10.61"/><rect x="46.11" y="4.28" width="32.35" height="10.61"/><polygon points="83.94 4.33 113.67 4.33 113.67 50.15 101.94 50.15 101.94 14.89 83.94 14.89 83.94 4.33"/><polygon points="161.67 14.89 158.15 20.64 172.61 49.65 195.98 4.33 189.03 4.33 172.61 36.65 161.67 14.89"/><polygon points="144.08 43.55 140.02 50.15 117.33 4.28 124.11 4.28 144.08 43.55"/><path d="M223.61,4.15a22.5,22.5,0,1,0,22.5,22.5A22.5,22.5,0,0,0,223.61,4.15Zm0,39a16.5,16.5,0,1,1,16.5-16.5A16.5,16.5,0,0,1,223.61,43.15Z"/><rect x="255.11" y="19.15" width="6" height="31"/><path d="M279.44,32.86a15,15,0,0,0-4.83-29.21h-19.5v7h19.5a9,9,0,0,1,9,9c0,5-4,8-9,8-2.51,0-4.79,0-6.42-1.69l13.09,24.19h8.33Z"/><path d="M313.11,50.15a23,23,0,0,0,0-46h-14v6h14a17,17,0,0,1,0,34h-14v6Z"/></g></g></svg>